<svg width="800" height="800" viewBox="0 0 800 800" fill="none" xmlns="http://www.w3.org/2000/svg">
    <path d="M179.173 689.655C148.705 689.655 124.002 714.358 124.002 744.827C124.002 775.295 148.705 799.998 179.173 799.998H675.725V689.653H179.173V689.655Z" fill="#088888"/>
    <path d="M179.173 0C148.705 0 124.002 24.7031 124.002 55.1719L124 526.677C165.077 515.656 278.242 435.877 289.987 452C301.733 468.123 300.79 368.559 289.987 398.578C282.77 418.635 264.705 425.667 246.319 431.323C227.933 436.98 179.159 452 179.159 452C146.373 462.083 124 492.372 124 526.677V637.105V744.828C124 714.359 148.703 689.656 179.172 689.656H675.725V0H179.173Z" fill="#0AAAAA"/>
    <path d="M234.345 275.863H565.38V55.1719H234.345V275.863Z" fill="#EDEBDA"/>
    <path d="M441.242 151.723H358.483C350.869 151.723 344.689 145.544 344.689 137.93C344.689 130.316 350.869 124.136 358.483 124.136H441.242C448.856 124.136 455.036 130.316 455.036 137.93C455.036 145.545 448.856 151.723 441.242 151.723Z" fill="#CEC9AE"/>
    <path d="M482.622 206.897H317.105C309.491 206.897 303.311 200.717 303.311 193.103C303.311 185.489 309.491 179.309 317.105 179.309H482.622C490.236 179.309 496.416 185.489 496.416 193.103C496.416 200.717 490.236 206.897 482.622 206.897Z" fill="#CEC9AE"/>
    <path d="M606.759 758.62H192.966C185.352 758.62 179.172 752.441 179.172 744.827C179.172 737.212 185.352 731.033 192.966 731.033H606.759C614.373 731.033 620.553 737.212 620.553 744.827C620.553 752.442 614.373 758.62 606.759 758.62Z" fill="#0AAAAA"/>
</svg>
